<svg fill="#ffffff" height="200px" width="200px" version="1.1" id="Layer_1" xmlns="http://www.w3.org/2000/svg" xmlns:xlink="http://www.w3.org/1999/xlink" viewBox="0 0 512.412 512.412" xml:space="preserve"><g id="SVGRepo_bgCarrier" stroke-width="0"></g><g id="SVGRepo_tracerCarrier" stroke-linecap="round" stroke-linejoin="round"></g><g id="SVGRepo_iconCarrier"> <g transform="translate(1 1)"> <g> <g> <path d="M84.41,460.006h68.267c5.12,0,8.533-3.413,8.533-8.533v-51.2c0-5.12-3.413-8.533-8.533-8.533H84.41 c-5.12,0-8.533,3.413-8.533,8.533v51.2C75.877,456.592,79.29,460.006,84.41,460.006z M92.944,408.806h51.2v34.133h-51.2V408.806z "></path> <path d="M357.477,460.006h68.267c5.12,0,8.533-3.413,8.533-8.533v-51.2c0-5.12-3.413-8.533-8.533-8.533h-68.267 c-5.12,0-8.533,3.413-8.533,8.533v51.2C348.944,456.592,352.357,460.006,357.477,460.006z M366.01,408.806h51.2v34.133h-51.2 V408.806z"></path> <path d="M84.41,374.673h68.267c5.12,0,8.533-3.413,8.533-8.533v-51.2c0-5.12-3.413-8.533-8.533-8.533H84.41 c-5.12,0-8.533,3.413-8.533,8.533v51.2C75.877,371.259,79.29,374.673,84.41,374.673z M92.944,323.473h51.2v34.133h-51.2V323.473z "></path> <path d="M357.477,374.673h68.267c5.12,0,8.533-3.413,8.533-8.533v-51.2c0-5.12-3.413-8.533-8.533-8.533h-68.267 c-5.12,0-8.533,3.413-8.533,8.533v51.2C348.944,371.259,352.357,374.673,357.477,374.673z M366.01,323.473h51.2v34.133h-51.2 V323.473z"></path> <path d="M84.41,289.339h68.267c5.12,0,8.533-3.413,8.533-8.533v-51.2c0-5.12-3.413-8.533-8.533-8.533H84.41 c-5.12,0-8.533,3.413-8.533,8.533v51.2C75.877,285.926,79.29,289.339,84.41,289.339z M92.944,238.139h51.2v34.133h-51.2V238.139z "></path> <path d="M357.477,289.339h68.267c5.12,0,8.533-3.413,8.533-8.533v-51.2c0-5.12-3.413-8.533-8.533-8.533h-68.267 c-5.12,0-8.533,3.413-8.533,8.533v51.2C348.944,285.926,352.357,289.339,357.477,289.339z M366.01,238.139h51.2v34.133h-51.2 V238.139z"></path> <path d="M84.41,204.006h68.267c5.12,0,8.533-3.413,8.533-8.533v-51.2c0-5.12-3.413-8.533-8.533-8.533H84.41 c-5.12,0-8.533,3.413-8.533,8.533v51.2C75.877,200.593,79.29,204.006,84.41,204.006z M92.944,152.806h51.2v34.133h-51.2V152.806z "></path> <path d="M220.944,374.673h68.267c5.12,0,8.533-3.413,8.533-8.533v-51.2c0-5.12-3.413-8.533-8.533-8.533h-68.267 c-5.12,0-8.533,3.413-8.533,8.533v51.2C212.41,371.259,215.824,374.673,220.944,374.673z M229.477,323.473h51.2v34.133h-51.2 V323.473z"></path> <path d="M220.944,289.339h68.267c5.12,0,8.533-3.413,8.533-8.533v-51.2c0-5.12-3.413-8.533-8.533-8.533h-68.267 c-5.12,0-8.533,3.413-8.533,8.533v51.2C212.41,285.926,215.824,289.339,220.944,289.339z M229.477,238.139h51.2v34.133h-51.2 V238.139z"></path> <path d="M220.944,204.006h68.267c5.12,0,8.533-3.413,8.533-8.533v-51.2c0-5.12-3.413-8.533-8.533-8.533h-68.267 c-5.12,0-8.533,3.413-8.533,8.533v51.2C212.41,200.593,215.824,204.006,220.944,204.006z M229.477,152.806h51.2v34.133h-51.2 V152.806z"></path> <path d="M357.477,204.006h68.267c5.12,0,8.533-3.413,8.533-8.533v-51.2c0-5.12-3.413-8.533-8.533-8.533h-68.267 c-5.12,0-8.533,3.413-8.533,8.533v51.2C348.944,200.593,352.357,204.006,357.477,204.006z M366.01,152.806h51.2v34.133h-51.2 V152.806z"></path> <path d="M511.077,108.433l-25.6-102.4c-0.853-4.267-4.267-6.827-8.533-6.827h-435.2c-3.413,0-6.827,2.56-7.68,5.973 l-34.133,102.4c-1.707,2.56-0.853,5.12,0.853,7.68c1.707,1.707,4.267,3.413,6.827,3.413h34.133v375.467H33.21 c-5.12,0-8.533,3.413-8.533,8.533s3.413,8.533,8.533,8.533h17.067h153.6h51.2h51.2h153.6h17.067c5.12,0,8.533-3.413,8.533-8.533 s-3.413-8.533-8.533-8.533h-8.533V118.673h34.133c2.56,0,5.12,0,6.827-2.56S511.93,110.993,511.077,108.433z M246.544,494.139 H212.41v-85.333h34.133V494.139z M263.61,494.139v-85.333h34.133v85.333H263.61z M451.344,494.139H314.81v-93.867 c0-5.12-3.413-8.533-8.533-8.533h-51.2h-51.2c-5.12,0-8.533,3.413-8.533,8.533v93.867H58.81V118.673h392.533V494.139z M459.877,101.606h-409.6h-30.72l5.632-17.067h83.115c3.413,0,6.827-3.413,6.827-8.533s-2.56-8.533-7.68-8.533H30.821 l5.632-17.067H138.17c5.12,0,8.533-3.413,8.533-8.533s-3.413-8.533-8.533-8.533H42.085l5.632-17.067h422.4l4.267,17.067h-91.307 c-5.12,0-8.533,3.413-8.533,8.533s3.413,8.533,8.533,8.533h95.573l4.267,17.067h-74.24c-5.12,0-8.533,3.413-8.533,8.533 s3.413,8.533,8.533,8.533h78.507l4.267,17.067H459.877z"></path> </g> </g> </g> </g></svg>